<?xml version="1.0" encoding="UTF-8" standalone="no"?>
<svg
   version="1.1"
   id="Layer_1"
   x="0px"
   y="0px"
   viewBox="0 0 122.88 122.88"
   style="enable-background:new 0 0 122.88 122.88"
   xml:space="preserve"
   sodipodi:docname="home-button-icon2.svg"
   inkscape:version="1.4.2 (f4327f4, 2025-05-13)"
   xmlns:inkscape="http://www.inkscape.org/namespaces/inkscape"
   xmlns:sodipodi="http://sodipodi.sourceforge.net/DTD/sodipodi-0.dtd"
   xmlns="http://www.w3.org/2000/svg"
   xmlns:svg="http://www.w3.org/2000/svg"><defs
     id="defs1" /><sodipodi:namedview
     id="namedview1"
     pagecolor="#ffffff"
     bordercolor="#000000"
     borderopacity="0.25"
     inkscape:showpageshadow="2"
     inkscape:pageopacity="0.0"
     inkscape:pagecheckerboard="0"
     inkscape:deskcolor="#d1d1d1"
     inkscape:zoom="6.0465496"
     inkscape:cx="61.439999"
     inkscape:cy="61.439999"
     inkscape:window-width="1400"
     inkscape:window-height="987"
     inkscape:window-x="-8"
     inkscape:window-y="-8"
     inkscape:window-maximized="1"
     inkscape:current-layer="Layer_1" /><style
     type="text/css"
     id="style1"><![CDATA[
	.st0{fill-rule:evenodd;clip-rule:evenodd;}
]]></style><g
     id="g1"
     style="fill:#979cf6;fill-opacity:1"><path
       class="st0"
       d="M61.44,0c33.93,0,61.44,27.51,61.44,61.44c0,33.93-27.51,61.44-61.44,61.44C27.51,122.88,0,95.37,0,61.44 C0,27.51,27.51,0,61.44,0L61.44,0z M61.44,29L30.06,59.74l7.65,4.02l23.52-24.69l23.92,24.7l7.66-4.02L61.44,29L61.44,29L61.44,29z M39.39,67.13L39.39,67.13l22.08-22.09l22.02,22.09l0,0l0,0v21.67H67.4v-15.3H55.34v15.3H39.39V67.13L39.39,67.13L39.39,67.13 L39.39,67.13z M61.44,9.09c28.91,0,52.35,23.44,52.35,52.35c0,28.91-23.44,52.35-52.35,52.35S9.09,90.35,9.09,61.44 C9.09,32.53,32.53,9.09,61.44,9.09L61.44,9.09z"
       id="path1"
       style="fill:#979cf6;fill-opacity:1" /></g></svg>
